<svg width="16" height="16" viewBox="0 0 16 16" fill="none" xmlns="http://www.w3.org/2000/svg">
<rect width="16" height="16" fill="black"/>
<circle cx="1.72414" cy="2.36783" r="0.5" stroke="white" stroke-width="0.448274"/>
<circle cx="1.72414" cy="4.6207" r="0.5" stroke="white" stroke-width="0.448274"/>
<circle cx="1.72414" cy="6.87358" r="0.5" stroke="white" stroke-width="0.448274"/>
<mask id="path-4-inside-1" fill="white">
<ellipse cx="1.72414" cy="9.12644" rx="0.724137" ry="0.724141"/>
</mask>
<path d="M1.44828 9.12644C1.44828 8.97409 1.57179 8.85058 1.72414 8.85058V10.8506C2.67636 10.8506 3.44828 10.0787 3.44828 9.12644H1.44828ZM1.72414 8.85058C1.8765 8.85058 2.00001 8.97409 2.00001 9.12644H7.62939e-06C7.62939e-06 10.0787 0.771926 10.8506 1.72414 10.8506V8.85058ZM2.00001 9.12644C2.00001 9.27879 1.8765 9.4023 1.72414 9.4023V7.4023C0.771926 7.4023 7.62939e-06 8.17423 7.62939e-06 9.12644H2.00001ZM1.72414 9.4023C1.57179 9.4023 1.44828 9.27879 1.44828 9.12644H3.44828C3.44828 8.17423 2.67636 7.4023 1.72414 7.4023V9.4023Z" fill="white" mask="url(#path-4-inside-1)"/>
<mask id="path-6-inside-2" fill="white">
<ellipse cx="1.72414" cy="11.3793" rx="0.724137" ry="0.724141"/>
</mask>
<path d="M1.44828 11.3793C1.44828 11.227 1.57179 11.1034 1.72414 11.1034V13.1034C2.67636 13.1034 3.44828 12.3315 3.44828 11.3793H1.44828ZM1.72414 11.1034C1.8765 11.1034 2.00001 11.227 2.00001 11.3793H7.62939e-06C7.62939e-06 12.3315 0.771926 13.1034 1.72414 13.1034V11.1034ZM2.00001 11.3793C2.00001 11.5317 1.8765 11.6552 1.72414 11.6552V9.65517C0.771926 9.65517 7.62939e-06 10.4271 7.62939e-06 11.3793H2.00001ZM1.72414 11.6552C1.57179 11.6552 1.44828 11.5317 1.44828 11.3793H3.44828C3.44828 10.4271 2.67636 9.65517 1.72414 9.65517V11.6552Z" fill="white" mask="url(#path-6-inside-2)"/>
<mask id="path-8-inside-3" fill="white">
<ellipse cx="1.72414" cy="13.6322" rx="0.724137" ry="0.724134"/>
</mask>
<path d="M1.44828 13.6322C1.44828 13.4798 1.57179 13.3563 1.72414 13.3563V15.3563C2.67636 15.3563 3.44828 14.5844 3.44828 13.6322H1.44828ZM1.72414 13.3563C1.8765 13.3563 2.00001 13.4798 2.00001 13.6322H7.62939e-06C7.62939e-06 14.5844 0.771934 15.3563 1.72414 15.3563V13.3563ZM2.00001 13.6322C2.00001 13.7845 1.8765 13.9081 1.72414 13.9081V11.9081C0.771934 11.9081 7.62939e-06 12.68 7.62939e-06 13.6322H2.00001ZM1.72414 13.9081C1.57179 13.9081 1.44828 13.7845 1.44828 13.6322H3.44828C3.44828 12.68 2.67636 11.9081 1.72414 11.9081V13.9081Z" fill="white" mask="url(#path-8-inside-3)"/>
<circle cx="3.8161" cy="2.36783" r="0.5" stroke="white" stroke-width="0.448274"/>
<circle cx="3.8161" cy="4.6207" r="0.5" stroke="white" stroke-width="0.448274"/>
<circle cx="3.8161" cy="6.87358" r="0.5" stroke="white" stroke-width="0.448274"/>
<mask id="path-13-inside-4" fill="white">
<ellipse cx="3.8161" cy="9.12644" rx="0.724137" ry="0.724141"/>
</mask>
<path d="M3.54024 9.12644C3.54024 8.97409 3.66374 8.85058 3.8161 8.85058V10.8506C4.76832 10.8506 5.54024 10.0787 5.54024 9.12644H3.54024ZM3.8161 8.85058C3.96846 8.85058 4.09196 8.97409 4.09196 9.12644H2.09196C2.09196 10.0787 2.86388 10.8506 3.8161 10.8506V8.85058ZM4.09196 9.12644C4.09196 9.27879 3.96846 9.4023 3.8161 9.4023V7.4023C2.86388 7.4023 2.09196 8.17423 2.09196 9.12644H4.09196ZM3.8161 9.4023C3.66374 9.4023 3.54024 9.27879 3.54024 9.12644H5.54024C5.54024 8.17423 4.76832 7.4023 3.8161 7.4023V9.4023Z" fill="white" mask="url(#path-13-inside-4)"/>
<mask id="path-15-inside-5" fill="white">
<ellipse cx="3.8161" cy="11.3793" rx="0.724137" ry="0.724141"/>
</mask>
<path d="M3.54024 11.3793C3.54024 11.227 3.66374 11.1034 3.8161 11.1034V13.1034C4.76832 13.1034 5.54024 12.3315 5.54024 11.3793H3.54024ZM3.8161 11.1034C3.96846 11.1034 4.09196 11.227 4.09196 11.3793H2.09196C2.09196 12.3315 2.86388 13.1034 3.8161 13.1034V11.1034ZM4.09196 11.3793C4.09196 11.5317 3.96846 11.6552 3.8161 11.6552V9.65517C2.86388 9.65517 2.09196 10.4271 2.09196 11.3793H4.09196ZM3.8161 11.6552C3.66374 11.6552 3.54024 11.5317 3.54024 11.3793H5.54024C5.54024 10.4271 4.76832 9.65517 3.8161 9.65517V11.6552Z" fill="white" mask="url(#path-15-inside-5)"/>
<mask id="path-17-inside-6" fill="white">
<ellipse cx="3.8161" cy="13.6322" rx="0.724137" ry="0.724134"/>
</mask>
<path d="M3.54024 13.6322C3.54024 13.4798 3.66375 13.3563 3.8161 13.3563V15.3563C4.76831 15.3563 5.54024 14.5844 5.54024 13.6322H3.54024ZM3.8161 13.3563C3.96845 13.3563 4.09196 13.4798 4.09196 13.6322H2.09196C2.09196 14.5844 2.86389 15.3563 3.8161 15.3563V13.3563ZM4.09196 13.6322C4.09196 13.7845 3.96845 13.9081 3.8161 13.9081V11.9081C2.86389 11.9081 2.09196 12.68 2.09196 13.6322H4.09196ZM3.8161 13.9081C3.66375 13.9081 3.54024 13.7845 3.54024 13.6322H5.54024C5.54024 12.68 4.76831 11.9081 3.8161 11.9081V13.9081Z" fill="white" mask="url(#path-17-inside-6)"/>
<circle cx="5.90805" cy="2.36783" r="0.5" stroke="white" stroke-width="0.448274"/>
<circle cx="5.90805" cy="4.6207" r="0.5" stroke="white" stroke-width="0.448274"/>
<circle cx="5.90805" cy="6.87358" r="0.5" stroke="white" stroke-width="0.448274"/>
<mask id="path-22-inside-7" fill="white">
<ellipse cx="5.90805" cy="9.12644" rx="0.724137" ry="0.724141"/>
</mask>
<path d="M5.63218 9.12644C5.63218 8.97409 5.75569 8.85058 5.90805 8.85058V10.8506C6.86027 10.8506 7.63218 10.0787 7.63218 9.12644H5.63218ZM5.90805 8.85058C6.06041 8.85058 6.18391 8.97409 6.18391 9.12644H4.18391C4.18391 10.0787 4.95583 10.8506 5.90805 10.8506V8.85058ZM6.18391 9.12644C6.18391 9.27879 6.06041 9.4023 5.90805 9.4023V7.4023C4.95583 7.4023 4.18391 8.17423 4.18391 9.12644H6.18391ZM5.90805 9.4023C5.75569 9.4023 5.63218 9.27879 5.63218 9.12644H7.63218C7.63218 8.17423 6.86027 7.4023 5.90805 7.4023V9.4023Z" fill="white" mask="url(#path-22-inside-7)"/>
<mask id="path-24-inside-8" fill="white">
<ellipse cx="5.90805" cy="11.3793" rx="0.724137" ry="0.724141"/>
</mask>
<path d="M5.63218 11.3793C5.63218 11.227 5.75569 11.1034 5.90805 11.1034V13.1034C6.86027 13.1034 7.63218 12.3315 7.63218 11.3793H5.63218ZM5.90805 11.1034C6.06041 11.1034 6.18391 11.227 6.18391 11.3793H4.18391C4.18391 12.3315 4.95583 13.1034 5.90805 13.1034V11.1034ZM6.18391 11.3793C6.18391 11.5317 6.06041 11.6552 5.90805 11.6552V9.65517C4.95583 9.65517 4.18391 10.4271 4.18391 11.3793H6.18391ZM5.90805 11.6552C5.75569 11.6552 5.63218 11.5317 5.63218 11.3793H7.63218C7.63218 10.4271 6.86027 9.65517 5.90805 9.65517V11.6552Z" fill="white" mask="url(#path-24-inside-8)"/>
<mask id="path-26-inside-9" fill="white">
<ellipse cx="5.90805" cy="13.6322" rx="0.724137" ry="0.724134"/>
</mask>
<path d="M5.63218 13.6322C5.63218 13.4798 5.7557 13.3563 5.90805 13.3563V15.3563C6.86026 15.3563 7.63218 14.5844 7.63218 13.6322H5.63218ZM5.90805 13.3563C6.0604 13.3563 6.18391 13.4798 6.18391 13.6322H4.18391C4.18391 14.5844 4.95584 15.3563 5.90805 15.3563V13.3563ZM6.18391 13.6322C6.18391 13.7845 6.0604 13.9081 5.90805 13.9081V11.9081C4.95584 11.9081 4.18391 12.68 4.18391 13.6322H6.18391ZM5.90805 13.9081C5.7557 13.9081 5.63218 13.7845 5.63218 13.6322H7.63218C7.63218 12.68 6.86026 11.9081 5.90805 11.9081V13.9081Z" fill="white" mask="url(#path-26-inside-9)"/>
<mask id="path-28-inside-10" fill="white">
<ellipse cx="8" cy="2.36783" rx="0.724137" ry="0.724137"/>
</mask>
<path d="M7.72414 2.36783C7.72414 2.21547 7.84765 2.09197 8 2.09197V4.09197C8.95222 4.09197 9.72414 3.32004 9.72414 2.36783H7.72414ZM8 2.09197C8.15236 2.09197 8.27586 2.21547 8.27586 2.36783H6.27586C6.27586 3.32004 7.04779 4.09197 8 4.09197V2.09197ZM8.27586 2.36783C8.27586 2.52018 8.15236 2.64369 8 2.64369V0.643692C7.04779 0.643692 6.27586 1.41561 6.27586 2.36783H8.27586ZM8 2.64369C7.84765 2.64369 7.72414 2.52018 7.72414 2.36783H9.72414C9.72414 1.41561 8.95222 0.643692 8 0.643692V2.64369Z" fill="white" mask="url(#path-28-inside-10)"/>
<mask id="path-30-inside-11" fill="white">
<ellipse cx="8" cy="4.6207" rx="0.724137" ry="0.724137"/>
</mask>
<path d="M7.72414 4.6207C7.72414 4.46834 7.84765 4.34484 8 4.34484V6.34484C8.95222 6.34484 9.72414 5.57291 9.72414 4.6207H7.72414ZM8 4.34484C8.15236 4.34484 8.27586 4.46834 8.27586 4.6207H6.27586C6.27586 5.57291 7.04779 6.34484 8 6.34484V4.34484ZM8.27586 4.6207C8.27586 4.77305 8.15236 4.89656 8 4.89656V2.89656C7.04779 2.89656 6.27586 3.66848 6.27586 4.6207H8.27586ZM8 4.89656C7.84765 4.89656 7.72414 4.77305 7.72414 4.6207H9.72414C9.72414 3.66848 8.95222 2.89656 8 2.89656V4.89656Z" fill="white" mask="url(#path-30-inside-11)"/>
<mask id="path-32-inside-12" fill="white">
<ellipse cx="8" cy="6.87358" rx="0.724137" ry="0.724137"/>
</mask>
<path d="M7.72414 6.87358C7.72414 6.72123 7.84765 6.59772 8 6.59772V8.59772C8.95222 8.59772 9.72414 7.8258 9.72414 6.87358H7.72414ZM8 6.59772C8.15236 6.59772 8.27586 6.72123 8.27586 6.87358H6.27586C6.27586 7.8258 7.04779 8.59772 8 8.59772V6.59772ZM8.27586 6.87358C8.27586 7.02594 8.15236 7.14944 8 7.14944V5.14944C7.04779 5.14944 6.27586 5.92137 6.27586 6.87358H8.27586ZM8 7.14944C7.84765 7.14944 7.72414 7.02594 7.72414 6.87358H9.72414C9.72414 5.92137 8.95222 5.14944 8 5.14944V7.14944Z" fill="white" mask="url(#path-32-inside-12)"/>
<mask id="path-34-inside-13" fill="white">
<ellipse cx="8" cy="9.12644" rx="0.724137" ry="0.724141"/>
</mask>
<path d="M7.72414 9.12644C7.72414 8.97409 7.84764 8.85058 8 8.85058V10.8506C8.95222 10.8506 9.72414 10.0787 9.72414 9.12644H7.72414ZM8 8.85058C8.15236 8.85058 8.27586 8.97409 8.27586 9.12644H6.27586C6.27586 10.0787 7.04778 10.8506 8 10.8506V8.85058ZM8.27586 9.12644C8.27586 9.27879 8.15236 9.4023 8 9.4023V7.4023C7.04778 7.4023 6.27586 8.17423 6.27586 9.12644H8.27586ZM8 9.4023C7.84764 9.4023 7.72414 9.27879 7.72414 9.12644H9.72414C9.72414 8.17423 8.95222 7.4023 8 7.4023V9.4023Z" fill="white" mask="url(#path-34-inside-13)"/>
<mask id="path-36-inside-14" fill="white">
<ellipse cx="8" cy="11.3793" rx="0.724137" ry="0.724141"/>
</mask>
<path d="M7.72414 11.3793C7.72414 11.227 7.84764 11.1034 8 11.1034V13.1034C8.95222 13.1034 9.72414 12.3315 9.72414 11.3793H7.72414ZM8 11.1034C8.15236 11.1034 8.27586 11.227 8.27586 11.3793H6.27586C6.27586 12.3315 7.04778 13.1034 8 13.1034V11.1034ZM8.27586 11.3793C8.27586 11.5317 8.15236 11.6552 8 11.6552V9.65517C7.04778 9.65517 6.27586 10.4271 6.27586 11.3793H8.27586ZM8 11.6552C7.84764 11.6552 7.72414 11.5317 7.72414 11.3793H9.72414C9.72414 10.4271 8.95222 9.65517 8 9.65517V11.6552Z" fill="white" mask="url(#path-36-inside-14)"/>
<mask id="path-38-inside-15" fill="white">
<ellipse cx="8" cy="13.6322" rx="0.724137" ry="0.724134"/>
</mask>
<path d="M7.72414 13.6322C7.72414 13.4798 7.84765 13.3563 8 13.3563V15.3563C8.95221 15.3563 9.72414 14.5844 9.72414 13.6322H7.72414ZM8 13.3563C8.15235 13.3563 8.27586 13.4798 8.27586 13.6322H6.27586C6.27586 14.5844 7.04779 15.3563 8 15.3563V13.3563ZM8.27586 13.6322C8.27586 13.7845 8.15235 13.9081 8 13.9081V11.9081C7.04779 11.9081 6.27586 12.68 6.27586 13.6322H8.27586ZM8 13.9081C7.84765 13.9081 7.72414 13.7845 7.72414 13.6322H9.72414C9.72414 12.68 8.95221 11.9081 8 11.9081V13.9081Z" fill="white" mask="url(#path-38-inside-15)"/>
<mask id="path-40-inside-16" fill="white">
<ellipse cx="10.0919" cy="2.36783" rx="0.724134" ry="0.724137"/>
</mask>
<path d="M9.81608 2.36783C9.81608 2.21548 9.93959 2.09197 10.0919 2.09197V4.09197C11.0442 4.09197 11.8161 3.32004 11.8161 2.36783H9.81608ZM10.0919 2.09197C10.2443 2.09197 10.3678 2.21548 10.3678 2.36783H8.36781C8.36781 3.32004 9.13973 4.09197 10.0919 4.09197V2.09197ZM10.3678 2.36783C10.3678 2.52018 10.2443 2.64369 10.0919 2.64369V0.643692C9.13973 0.643692 8.36781 1.41562 8.36781 2.36783H10.3678ZM10.0919 2.64369C9.93959 2.64369 9.81608 2.52018 9.81608 2.36783H11.8161C11.8161 1.41562 11.0442 0.643692 10.0919 0.643692V2.64369Z" fill="white" mask="url(#path-40-inside-16)"/>
<mask id="path-42-inside-17" fill="white">
<ellipse cx="10.0919" cy="4.6207" rx="0.724134" ry="0.724137"/>
</mask>
<path d="M9.81608 4.6207C9.81608 4.46835 9.93959 4.34484 10.0919 4.34484V6.34484C11.0442 6.34484 11.8161 5.57291 11.8161 4.6207H9.81608ZM10.0919 4.34484C10.2443 4.34484 10.3678 4.46835 10.3678 4.6207H8.36781C8.36781 5.57291 9.13973 6.34484 10.0919 6.34484V4.34484ZM10.3678 4.6207C10.3678 4.77305 10.2443 4.89656 10.0919 4.89656V2.89656C9.13973 2.89656 8.36781 3.66849 8.36781 4.6207H10.3678ZM10.0919 4.89656C9.93959 4.89656 9.81608 4.77305 9.81608 4.6207H11.8161C11.8161 3.66849 11.0442 2.89656 10.0919 2.89656V4.89656Z" fill="white" mask="url(#path-42-inside-17)"/>
<mask id="path-44-inside-18" fill="white">
<ellipse cx="10.0919" cy="6.87358" rx="0.724134" ry="0.724137"/>
</mask>
<path d="M9.81608 6.87358C9.81608 6.72123 9.93959 6.59772 10.0919 6.59772V8.59772C11.0442 8.59772 11.8161 7.82579 11.8161 6.87358H9.81608ZM10.0919 6.59772C10.2443 6.59772 10.3678 6.72123 10.3678 6.87358H8.36781C8.36781 7.82579 9.13973 8.59772 10.0919 8.59772V6.59772ZM10.3678 6.87358C10.3678 7.02593 10.2443 7.14944 10.0919 7.14944V5.14944C9.13973 5.14944 8.36781 5.92137 8.36781 6.87358H10.3678ZM10.0919 7.14944C9.93959 7.14944 9.81608 7.02593 9.81608 6.87358H11.8161C11.8161 5.92137 11.0442 5.14944 10.0919 5.14944V7.14944Z" fill="white" mask="url(#path-44-inside-18)"/>
<mask id="path-46-inside-19" fill="white">
<ellipse cx="10.0919" cy="9.12644" rx="0.724134" ry="0.724141"/>
</mask>
<path d="M9.81608 9.12644C9.81608 8.97409 9.93958 8.85058 10.0919 8.85058V10.8506C11.0442 10.8506 11.8161 10.0786 11.8161 9.12644H9.81608ZM10.0919 8.85058C10.2443 8.85058 10.3678 8.97409 10.3678 9.12644H8.36781C8.36781 10.0786 9.13973 10.8506 10.0919 10.8506V8.85058ZM10.3678 9.12644C10.3678 9.27878 10.2443 9.4023 10.0919 9.4023V7.4023C9.13973 7.4023 8.36781 8.17423 8.36781 9.12644H10.3678ZM10.0919 9.4023C9.93958 9.4023 9.81608 9.27878 9.81608 9.12644H11.8161C11.8161 8.17423 11.0442 7.4023 10.0919 7.4023V9.4023Z" fill="white" mask="url(#path-46-inside-19)"/>
<mask id="path-48-inside-20" fill="white">
<ellipse cx="10.0919" cy="11.3793" rx="0.724134" ry="0.724141"/>
</mask>
<path d="M9.81608 11.3793C9.81608 11.227 9.93958 11.1034 10.0919 11.1034V13.1034C11.0442 13.1034 11.8161 12.3315 11.8161 11.3793H9.81608ZM10.0919 11.1034C10.2443 11.1034 10.3678 11.227 10.3678 11.3793H8.36781C8.36781 12.3315 9.13973 13.1034 10.0919 13.1034V11.1034ZM10.3678 11.3793C10.3678 11.5317 10.2443 11.6552 10.0919 11.6552V9.65517C9.13973 9.65517 8.36781 10.4271 8.36781 11.3793H10.3678ZM10.0919 11.6552C9.93958 11.6552 9.81608 11.5317 9.81608 11.3793H11.8161C11.8161 10.4271 11.0442 9.65517 10.0919 9.65517V11.6552Z" fill="white" mask="url(#path-48-inside-20)"/>
<circle cx="10.0919" cy="13.6322" r="0.5" stroke="white" stroke-width="0.448268"/>
<mask id="path-51-inside-21" fill="white">
<ellipse cx="12.1839" cy="2.36783" rx="0.724141" ry="0.724137"/>
</mask>
<path d="M11.9081 2.36783C11.9081 2.21547 12.0316 2.09197 12.1839 2.09197V4.09197C13.1361 4.09197 13.9081 3.32005 13.9081 2.36783H11.9081ZM12.1839 2.09197C12.3363 2.09197 12.4598 2.21547 12.4598 2.36783H10.4598C10.4598 3.32005 11.2317 4.09197 12.1839 4.09197V2.09197ZM12.4598 2.36783C12.4598 2.52019 12.3363 2.64369 12.1839 2.64369V0.643692C11.2317 0.643692 10.4598 1.41561 10.4598 2.36783H12.4598ZM12.1839 2.64369C12.0316 2.64369 11.9081 2.52019 11.9081 2.36783H13.9081C13.9081 1.41561 13.1361 0.643692 12.1839 0.643692V2.64369Z" fill="white" mask="url(#path-51-inside-21)"/>
<mask id="path-53-inside-22" fill="white">
<ellipse cx="12.1839" cy="4.6207" rx="0.724141" ry="0.724137"/>
</mask>
<path d="M11.9081 4.6207C11.9081 4.46834 12.0316 4.34484 12.1839 4.34484V6.34484C13.1361 6.34484 13.9081 5.57292 13.9081 4.6207H11.9081ZM12.1839 4.34484C12.3363 4.34484 12.4598 4.46834 12.4598 4.6207H10.4598C10.4598 5.57292 11.2317 6.34484 12.1839 6.34484V4.34484ZM12.4598 4.6207C12.4598 4.77306 12.3363 4.89656 12.1839 4.89656V2.89656C11.2317 2.89656 10.4598 3.66848 10.4598 4.6207H12.4598ZM12.1839 4.89656C12.0316 4.89656 11.9081 4.77306 11.9081 4.6207H13.9081C13.9081 3.66848 13.1361 2.89656 12.1839 2.89656V4.89656Z" fill="white" mask="url(#path-53-inside-22)"/>
<mask id="path-55-inside-23" fill="white">
<ellipse cx="12.1839" cy="6.87358" rx="0.724141" ry="0.724137"/>
</mask>
<path d="M11.9081 6.87358C11.9081 6.72122 12.0316 6.59772 12.1839 6.59772V8.59772C13.1361 8.59772 13.9081 7.8258 13.9081 6.87358H11.9081ZM12.1839 6.59772C12.3363 6.59772 12.4598 6.72122 12.4598 6.87358H10.4598C10.4598 7.8258 11.2317 8.59772 12.1839 8.59772V6.59772ZM12.4598 6.87358C12.4598 7.02594 12.3363 7.14944 12.1839 7.14944V5.14944C11.2317 5.14944 10.4598 5.92136 10.4598 6.87358H12.4598ZM12.1839 7.14944C12.0316 7.14944 11.9081 7.02594 11.9081 6.87358H13.9081C13.9081 5.92136 13.1361 5.14944 12.1839 5.14944V7.14944Z" fill="white" mask="url(#path-55-inside-23)"/>
<circle cx="12.1839" cy="9.12644" r="0.5" stroke="white" stroke-width="0.448281"/>
<circle cx="12.1839" cy="11.3793" r="0.5" stroke="white" stroke-width="0.448281"/>
<mask id="path-59-inside-24" fill="white">
<ellipse cx="12.1839" cy="13.6322" rx="0.724141" ry="0.724134"/>
</mask>
<path d="M11.9081 13.6322C11.9081 13.4798 12.0316 13.3563 12.1839 13.3563V15.3563C13.1361 15.3563 13.9081 14.5844 13.9081 13.6322H11.9081ZM12.1839 13.3563C12.3363 13.3563 12.4598 13.4798 12.4598 13.6322H10.4598C10.4598 14.5844 11.2317 15.3563 12.1839 15.3563V13.3563ZM12.4598 13.6322C12.4598 13.7845 12.3363 13.9081 12.1839 13.9081V11.9081C11.2317 11.9081 10.4598 12.68 10.4598 13.6322H12.4598ZM12.1839 13.9081C12.0316 13.9081 11.9081 13.7845 11.9081 13.6322H13.9081C13.9081 12.68 13.1361 11.9081 12.1839 11.9081V13.9081Z" fill="white" mask="url(#path-59-inside-24)"/>
<mask id="path-61-inside-25" fill="white">
<ellipse cx="14.2759" cy="2.36783" rx="0.724141" ry="0.724137"/>
</mask>
<path d="M14 2.36783C14 2.21547 14.1235 2.09197 14.2759 2.09197V4.09197C15.2281 4.09197 16 3.32005 16 2.36783H14ZM14.2759 2.09197C14.4282 2.09197 14.5517 2.21547 14.5517 2.36783H12.5517C12.5517 3.32005 13.3236 4.09197 14.2759 4.09197V2.09197ZM14.5517 2.36783C14.5517 2.52019 14.4282 2.64369 14.2759 2.64369V0.643692C13.3236 0.643692 12.5517 1.41561 12.5517 2.36783H14.5517ZM14.2759 2.64369C14.1235 2.64369 14 2.52019 14 2.36783H16C16 1.41561 15.2281 0.643692 14.2759 0.643692V2.64369Z" fill="white" mask="url(#path-61-inside-25)"/>
<mask id="path-63-inside-26" fill="white">
<ellipse cx="14.2759" cy="4.6207" rx="0.724141" ry="0.724137"/>
</mask>
<path d="M14 4.6207C14 4.46834 14.1235 4.34484 14.2759 4.34484V6.34484C15.2281 6.34484 16 5.57292 16 4.6207H14ZM14.2759 4.34484C14.4282 4.34484 14.5517 4.46834 14.5517 4.6207H12.5517C12.5517 5.57292 13.3236 6.34484 14.2759 6.34484V4.34484ZM14.5517 4.6207C14.5517 4.77306 14.4282 4.89656 14.2759 4.89656V2.89656C13.3236 2.89656 12.5517 3.66848 12.5517 4.6207H14.5517ZM14.2759 4.89656C14.1235 4.89656 14 4.77306 14 4.6207H16C16 3.66848 15.2281 2.89656 14.2759 2.89656V4.89656Z" fill="white" mask="url(#path-63-inside-26)"/>
<circle cx="1.72414" cy="2.36783" r="0.5" fill="white" stroke="white" stroke-width="0.448274"/>
<mask id="path-66-inside-27" fill="white">
<ellipse cx="5.90805" cy="11.3793" rx="0.724137" ry="0.724141"/>
</mask>
<ellipse cx="5.90805" cy="11.3793" rx="0.724137" ry="0.724141" fill="white"/>
<path d="M5.63218 11.3793C5.63218 11.227 5.75569 11.1034 5.90805 11.1034V13.1034C6.86027 13.1034 7.63218 12.3315 7.63218 11.3793H5.63218ZM5.90805 11.1034C6.06041 11.1034 6.18391 11.227 6.18391 11.3793H4.18391C4.18391 12.3315 4.95583 13.1034 5.90805 13.1034V11.1034ZM6.18391 11.3793C6.18391 11.5317 6.06041 11.6552 5.90805 11.6552V9.65517C4.95583 9.65517 4.18391 10.4271 4.18391 11.3793H6.18391ZM5.90805 11.6552C5.75569 11.6552 5.63218 11.5317 5.63218 11.3793H7.63218C7.63218 10.4271 6.86027 9.65517 5.90805 9.65517V11.6552Z" fill="white" mask="url(#path-66-inside-27)"/>
<mask id="path-68-inside-28" fill="white">
<ellipse cx="8" cy="6.87358" rx="0.724137" ry="0.724137"/>
</mask>
<ellipse cx="8" cy="6.87358" rx="0.724137" ry="0.724137" fill="white"/>
<path d="M7.72414 6.87358C7.72414 6.72123 7.84765 6.59772 8 6.59772V8.59772C8.95222 8.59772 9.72414 7.8258 9.72414 6.87358H7.72414ZM8 6.59772C8.15236 6.59772 8.27586 6.72123 8.27586 6.87358H6.27586C6.27586 7.8258 7.04779 8.59772 8 8.59772V6.59772ZM8.27586 6.87358C8.27586 7.02594 8.15236 7.14944 8 7.14944V5.14944C7.04779 5.14944 6.27586 5.92137 6.27586 6.87358H8.27586ZM8 7.14944C7.84765 7.14944 7.72414 7.02594 7.72414 6.87358H9.72414C9.72414 5.92137 8.95222 5.14944 8 5.14944V7.14944Z" fill="white" mask="url(#path-68-inside-28)"/>
<circle cx="12.1839" cy="9.12645" r="0.5" fill="white" stroke="white" stroke-width="0.448281"/>
<mask id="path-71-inside-29" fill="white">
<ellipse cx="14.2759" cy="4.6207" rx="0.724141" ry="0.724137"/>
</mask>
<ellipse cx="14.2759" cy="4.6207" rx="0.724141" ry="0.724137" fill="white"/>
<path d="M14 4.6207C14 4.46834 14.1235 4.34484 14.2759 4.34484V6.34484C15.2281 6.34484 16 5.57292 16 4.6207H14ZM14.2759 4.34484C14.4282 4.34484 14.5517 4.46834 14.5517 4.6207H12.5517C12.5517 5.57292 13.3236 6.34484 14.2759 6.34484V4.34484ZM14.5517 4.6207C14.5517 4.77306 14.4282 4.89656 14.2759 4.89656V2.89656C13.3236 2.89656 12.5517 3.66848 12.5517 4.6207H14.5517ZM14.2759 4.89656C14.1235 4.89656 14 4.77306 14 4.6207H16C16 3.66848 15.2281 2.89656 14.2759 2.89656V4.89656Z" fill="white" mask="url(#path-71-inside-29)"/>
<mask id="path-73-inside-30" fill="white">
<ellipse cx="14.2759" cy="6.87358" rx="0.724141" ry="0.724137"/>
</mask>
<path d="M14 6.87358C14 6.72122 14.1235 6.59772 14.2759 6.59772V8.59772C15.2281 8.59772 16 7.8258 16 6.87358H14ZM14.2759 6.59772C14.4282 6.59772 14.5517 6.72122 14.5517 6.87358H12.5517C12.5517 7.8258 13.3236 8.59772 14.2759 8.59772V6.59772ZM14.5517 6.87358C14.5517 7.02594 14.4282 7.14944 14.2759 7.14944V5.14944C13.3236 5.14944 12.5517 5.92136 12.5517 6.87358H14.5517ZM14.2759 7.14944C14.1235 7.14944 14 7.02594 14 6.87358H16C16 5.92136 15.2281 5.14944 14.2759 5.14944V7.14944Z" fill="white" mask="url(#path-73-inside-30)"/>
<mask id="path-75-inside-31" fill="white">
<ellipse cx="14.2759" cy="9.12644" rx="0.724141" ry="0.724141"/>
</mask>
<path d="M14 9.12644C14 8.97408 14.1235 8.85058 14.2759 8.85058V10.8506C15.2281 10.8506 16 10.0787 16 9.12644H14ZM14.2759 8.85058C14.4282 8.85058 14.5517 8.97408 14.5517 9.12644H12.5517C12.5517 10.0787 13.3236 10.8506 14.2759 10.8506V8.85058ZM14.5517 9.12644C14.5517 9.27879 14.4282 9.4023 14.2759 9.4023V7.4023C13.3236 7.4023 12.5517 8.17422 12.5517 9.12644H14.5517ZM14.2759 9.4023C14.1235 9.4023 14 9.27879 14 9.12644H16C16 8.17422 15.2281 7.4023 14.2759 7.4023V9.4023Z" fill="white" mask="url(#path-75-inside-31)"/>
<mask id="path-77-inside-32" fill="white">
<ellipse cx="14.2759" cy="11.3793" rx="0.724141" ry="0.724141"/>
</mask>
<path d="M14 11.3793C14 11.227 14.1235 11.1034 14.2759 11.1034V13.1034C15.2281 13.1034 16 12.3315 16 11.3793H14ZM14.2759 11.1034C14.4282 11.1034 14.5517 11.227 14.5517 11.3793H12.5517C12.5517 12.3315 13.3236 13.1034 14.2759 13.1034V11.1034ZM14.5517 11.3793C14.5517 11.5317 14.4282 11.6552 14.2759 11.6552V9.65517C13.3236 9.65517 12.5517 10.4271 12.5517 11.3793H14.5517ZM14.2759 11.6552C14.1235 11.6552 14 11.5317 14 11.3793H16C16 10.4271 15.2281 9.65517 14.2759 9.65517V11.6552Z" fill="white" mask="url(#path-77-inside-32)"/>
<mask id="path-79-inside-33" fill="white">
<ellipse cx="14.2759" cy="13.6322" rx="0.724141" ry="0.724134"/>
</mask>
<path d="M14 13.6322C14 13.4798 14.1235 13.3563 14.2759 13.3563V15.3563C15.2281 15.3563 16 14.5844 16 13.6322H14ZM14.2759 13.3563C14.4282 13.3563 14.5517 13.4798 14.5517 13.6322H12.5517C12.5517 14.5844 13.3237 15.3563 14.2759 15.3563V13.3563ZM14.5517 13.6322C14.5517 13.7846 14.4282 13.9081 14.2759 13.9081V11.9081C13.3237 11.9081 12.5517 12.68 12.5517 13.6322H14.5517ZM14.2759 13.9081C14.1235 13.9081 14 13.7846 14 13.6322H16C16 12.68 15.2281 11.9081 14.2759 11.9081V13.9081Z" fill="white" mask="url(#path-79-inside-33)"/>
</svg>
