<?xml version="1.0" standalone="no"?>
<!DOCTYPE svg PUBLIC "-//W3C//DTD SVG 20010904//EN"
 "http://www.w3.org/TR/2001/REC-SVG-20010904/DTD/svg10.dtd">
<svg version="1.0" xmlns="http://www.w3.org/2000/svg"
 width="700.000000pt" height="700.000000pt" viewBox="0 0 700.000000 700.000000"
 preserveAspectRatio="xMidYMid meet">
<metadata>
Created by potrace 1.14, written by Peter Selinger 2001-2017
</metadata>
<g transform="translate(0.000000,700.000000) scale(0.100000,-0.100000)"
fill="#000000" stroke="none">
<path d="M0 3500 l0 -3500 3500 0 3500 0 0 3500 0 3500 -3500 0 -3500 0 0
-3500z m2171 2615 c409 -71 723 -367 825 -775 27 -106 27 -354 0 -460 -49
-198 -157 -385 -298 -515 -351 -325 -882 -365 -1273 -94 -460 318 -579 939
-270 1405 221 332 627 508 1016 439z m2944 4 c122 -14 287 -70 391 -133 468
-278 640 -842 404 -1321 -289 -587 -1057 -756 -1572 -346 -192 152 -318 359
-369 606 -17 78 -17 294 -1 370 46 213 137 383 286 530 231 229 536 333 861
294z m-3015 -3189 c242 -26 444 -122 616 -294 135 -135 221 -285 271 -474 23
-85 26 -116 26 -257 0 -142 -3 -171 -26 -260 -170 -635 -854 -952 -1432 -665
-438 217 -660 712 -535 1195 30 115 116 285 194 382 167 207 417 343 681 373
100 11 101 11 205 0z m3085 -15 c355 -67 664 -338 774 -679 37 -114 39 -124
51 -237 23 -225 -39 -473 -167 -666 -51 -78 -171 -202 -252 -263 -37 -27 -110
-69 -162 -95 -507 -244 -1118 -34 -1368 471 -79 160 -106 280 -104 469 0 117
5 156 27 240 31 120 99 264 166 356 61 81 185 201 263 252 226 150 500 203
772 152z"/>
<path d="M4815 5913 c-448 -96 -739 -525 -649 -961 63 -308 288 -544 602 -635
102 -29 323 -31 422 -3 303 84 517 294 602 591 32 114 32 296 0 410 -107 375
-432 618 -822 614 -47 0 -116 -7 -155 -16z"/>
<path d="M1878 2730 c-324 -59 -568 -278 -664 -595 -24 -78 -27 -108 -28 -225
0 -163 15 -232 84 -375 84 -173 203 -294 375 -379 131 -65 195 -80 355 -80
112 -1 148 3 215 22 300 87 529 335 590 641 23 110 16 295 -14 395 -46 155
-124 281 -239 387 -105 97 -214 156 -358 194 -70 19 -250 28 -316 15z"/>
<path d="M4857 2730 c-281 -48 -513 -224 -632 -483 -56 -122 -69 -185 -69
-342 -1 -166 19 -248 89 -384 107 -207 293 -358 521 -423 104 -30 323 -32 424
-4 144 39 277 116 379 218 109 108 174 218 216 365 122 420 -113 871 -528
1014 -131 45 -277 59 -400 39z"/>
</g>
</svg>
